<svg xmlns="http://www.w3.org/2000/svg" xmlns:xlink="http://www.w3.org/1999/xlink" width="1200" zoomAndPan="magnify" viewBox="0 0 900 149.999998" height="200" preserveAspectRatio="xMidYMid meet" version="1.0"><defs><filter x="0%" y="0%" width="100%" height="100%" id="73c120a6d4"><feColorMatrix values="0 0 0 0 1 0 0 0 0 1 0 0 0 0 1 0 0 0 1 0" color-interpolation-filters="sRGB"/></filter><g/><clipPath id="eb78d24932"><path d="M 733.152344 32 L 744 32 L 744 43 L 733.152344 43 Z M 733.152344 32 " clip-rule="nonzero"/></clipPath><clipPath id="a5bf489aa9"><path d="M 733.152344 31.6875 L 745 31.6875 L 745 43 L 733.152344 43 Z M 733.152344 31.6875 " clip-rule="nonzero"/></clipPath><clipPath id="a82d3b366c"><path d="M 733.152344 92 L 744 92 L 744 103 L 733.152344 103 Z M 733.152344 92 " clip-rule="nonzero"/></clipPath><clipPath id="72f4dad17c"><path d="M 733.152344 92 L 745 92 L 745 103.800781 L 733.152344 103.800781 Z M 733.152344 92 " clip-rule="nonzero"/></clipPath><clipPath id="3b05c5df72"><path d="M 733.152344 42 L 744 42 L 744 53 L 733.152344 53 Z M 733.152344 42 " clip-rule="nonzero"/></clipPath><clipPath id="8c17c606c5"><path d="M 733.152344 41 L 745 41 L 745 53 L 733.152344 53 Z M 733.152344 41 " clip-rule="nonzero"/></clipPath><clipPath id="a192d2b429"><path d="M 733.152344 82 L 744 82 L 744 93 L 733.152344 93 Z M 733.152344 82 " clip-rule="nonzero"/></clipPath><clipPath id="6b4a412945"><path d="M 733.152344 82 L 745 82 L 745 94 L 733.152344 94 Z M 733.152344 82 " clip-rule="nonzero"/></clipPath><clipPath id="5e96d739c2"><path d="M 733.152344 62 L 744 62 L 744 73 L 733.152344 73 Z M 733.152344 62 " clip-rule="nonzero"/></clipPath><clipPath id="5497950581"><path d="M 733.152344 61 L 745 61 L 745 73 L 733.152344 73 Z M 733.152344 61 " clip-rule="nonzero"/></clipPath><clipPath id="64d0652500"><path d="M 733.152344 52 L 744 52 L 744 63 L 733.152344 63 Z M 733.152344 52 " clip-rule="nonzero"/></clipPath><clipPath id="bd365d1c5b"><path d="M 733.152344 51 L 745 51 L 745 63 L 733.152344 63 Z M 733.152344 51 " clip-rule="nonzero"/></clipPath><clipPath id="b261aeffed"><path d="M 733.152344 72 L 744 72 L 744 83 L 733.152344 83 Z M 733.152344 72 " clip-rule="nonzero"/></clipPath><clipPath id="5e6e566735"><path d="M 733.152344 72 L 745 72 L 745 83 L 733.152344 83 Z M 733.152344 72 " clip-rule="nonzero"/></clipPath><clipPath id="0743506971"><path d="M 763 31.6875 L 775 31.6875 L 775 43 L 763 43 Z M 763 31.6875 " clip-rule="nonzero"/></clipPath><clipPath id="52b87e8394"><path d="M 763 92 L 775 92 L 775 103.800781 L 763 103.800781 Z M 763 92 " clip-rule="nonzero"/></clipPath><clipPath id="2e806f7b8c"><path d="M 793 31.6875 L 805 31.6875 L 805 43 L 793 43 Z M 793 31.6875 " clip-rule="nonzero"/></clipPath><clipPath id="711a227069"><path d="M 793 92 L 805 92 L 805 103.800781 L 793 103.800781 Z M 793 92 " clip-rule="nonzero"/></clipPath><clipPath id="b23374d1e1"><path d="M 0.878906 0 L 740 0 L 740 135.121094 L 0.878906 135.121094 Z M 0.878906 0 " clip-rule="nonzero"/></clipPath><mask id="bb9a4b93b9"><g filter="url(#73c120a6d4)"><rect x="-242" width="1296" fill="#000000" y="-32.999999" height="215.999996" fill-opacity="0.36"/></g></mask><clipPath id="ee953a64da"><path d="M 0.878906 0 L 739.121094 0 L 739.121094 135.121094 L 0.878906 135.121094 Z M 0.878906 0 " clip-rule="nonzero"/></clipPath><clipPath id="21b546abcb"><rect x="0" width="740" y="0" height="136"/></clipPath><clipPath id="47749e916c"><rect x="0" width="740" y="0" height="136"/></clipPath><clipPath id="213158a5d9"><rect x="0" width="836" y="0" height="136"/></clipPath><clipPath id="930f90f2c2"><path d="M 0.964844 0.46875 L 415.640625 0.46875 L 415.640625 61 L 0.964844 61 Z M 0.964844 0.46875 " clip-rule="nonzero"/></clipPath><clipPath id="86ab667908"><path d="M 0.964844 0.46875 L 415.640625 0.46875 L 415.640625 61 L 0.964844 61 Z M 0.964844 0.46875 " clip-rule="nonzero"/></clipPath><clipPath id="bacf1b0e82"><path d="M 17.777344 1.871094 L 397.425781 1.871094 L 397.425781 61 L 17.777344 61 Z M 17.777344 1.871094 " clip-rule="nonzero"/></clipPath><linearGradient x1="-11.718988" gradientTransform="matrix(1.399796, 0, 0, 1.400926, 34.179846, 34.092119)" y1="8" x2="259.49999" gradientUnits="userSpaceOnUse" y2="8" id="9265cea326"><stop stop-opacity="1" stop-color="rgb(65.098572%, 65.098572%, 65.098572%)" offset="0"/><stop stop-opacity="1" stop-color="rgb(65.098572%, 65.098572%, 65.098572%)" offset="0.0625"/><stop stop-opacity="1" stop-color="rgb(65.209961%, 65.209961%, 65.209961%)" offset="0.09375"/><stop stop-opacity="1" stop-color="rgb(65.487671%, 65.487671%, 65.487671%)" offset="0.101562"/><stop stop-opacity="1" stop-color="rgb(65.818787%, 65.818787%, 65.818787%)" offset="0.109375"/><stop stop-opacity="1" stop-color="rgb(66.149902%, 66.149902%, 66.149902%)" offset="0.117187"/><stop stop-opacity="1" stop-color="rgb(66.481018%, 66.481018%, 66.481018%)" offset="0.125"/><stop stop-opacity="1" stop-color="rgb(66.812134%, 66.812134%, 66.812134%)" offset="0.132812"/><stop stop-opacity="1" stop-color="rgb(67.14325%, 67.14325%, 67.14325%)" offset="0.140625"/><stop stop-opacity="1" stop-color="rgb(67.474365%, 67.474365%, 67.474365%)" offset="0.148437"/><stop stop-opacity="1" stop-color="rgb(67.807007%, 67.807007%, 67.807007%)" offset="0.15625"/><stop stop-opacity="1" stop-color="rgb(68.138123%, 68.138123%, 68.138123%)" offset="0.164062"/><stop stop-opacity="1" stop-color="rgb(68.469238%, 68.469238%, 68.469238%)" offset="0.171875"/><stop stop-opacity="1" stop-color="rgb(68.800354%, 68.800354%, 68.800354%)" offset="0.179687"/><stop stop-opacity="1" stop-color="rgb(69.13147%, 69.13147%, 69.13147%)" offset="0.1875"/><stop stop-opacity="1" stop-color="rgb(69.462585%, 69.462585%, 69.462585%)" offset="0.195312"/><stop stop-opacity="1" stop-color="rgb(69.793701%, 69.793701%, 69.793701%)" offset="0.203125"/><stop stop-opacity="1" stop-color="rgb(70.124817%, 70.124817%, 70.124817%)" offset="0.210937"/><stop stop-opacity="1" stop-color="rgb(70.455933%, 70.455933%, 70.455933%)" offset="0.21875"/><stop stop-opacity="1" stop-color="rgb(70.788574%, 70.788574%, 70.788574%)" offset="0.226562"/><stop stop-opacity="1" stop-color="rgb(71.11969%, 71.11969%, 71.11969%)" offset="0.234375"/><stop stop-opacity="1" stop-color="rgb(71.450806%, 71.450806%, 71.450806%)" offset="0.242187"/><stop stop-opacity="1" stop-color="rgb(71.781921%, 71.781921%, 71.781921%)" offset="0.25"/><stop stop-opacity="1" stop-color="rgb(72.113037%, 72.113037%, 72.113037%)" offset="0.257812"/><stop stop-opacity="1" stop-color="rgb(72.444153%, 72.444153%, 72.444153%)" offset="0.265625"/><stop stop-opacity="1" stop-color="rgb(72.775269%, 72.775269%, 72.775269%)" offset="0.273437"/><stop stop-opacity="1" stop-color="rgb(73.106384%, 73.106384%, 73.106384%)" offset="0.28125"/><stop stop-opacity="1" stop-color="rgb(73.4375%, 73.4375%, 73.4375%)" offset="0.289062"/><stop stop-opacity="1" stop-color="rgb(73.770142%, 73.770142%, 73.770142%)" offset="0.296875"/><stop stop-opacity="1" stop-color="rgb(74.101257%, 74.101257%, 74.101257%)" offset="0.304687"/><stop stop-opacity="1" stop-color="rgb(74.432373%, 74.432373%, 74.432373%)" offset="0.3125"/><stop stop-opacity="1" stop-color="rgb(74.763489%, 74.763489%, 74.763489%)" offset="0.320312"/><stop stop-opacity="1" stop-color="rgb(75.094604%, 75.094604%, 75.094604%)" offset="0.328125"/><stop stop-opacity="1" stop-color="rgb(75.42572%, 75.42572%, 75.42572%)" offset="0.335937"/><stop stop-opacity="1" stop-color="rgb(75.756836%, 75.756836%, 75.756836%)" offset="0.34375"/><stop stop-opacity="1" stop-color="rgb(76.087952%, 76.087952%, 76.087952%)" offset="0.351562"/><stop stop-opacity="1" stop-color="rgb(76.419067%, 76.419067%, 76.419067%)" offset="0.359375"/><stop stop-opacity="1" stop-color="rgb(76.751709%, 76.751709%, 76.751709%)" offset="0.367187"/><stop stop-opacity="1" stop-color="rgb(77.082825%, 77.082825%, 77.082825%)" offset="0.375"/><stop stop-opacity="1" stop-color="rgb(77.41394%, 77.41394%, 77.41394%)" offset="0.382812"/><stop stop-opacity="1" stop-color="rgb(77.745056%, 77.745056%, 77.745056%)" offset="0.390625"/><stop stop-opacity="1" stop-color="rgb(78.076172%, 78.076172%, 78.076172%)" offset="0.398437"/><stop stop-opacity="1" stop-color="rgb(78.407288%, 78.407288%, 78.407288%)" offset="0.40625"/><stop stop-opacity="1" stop-color="rgb(78.738403%, 78.738403%, 78.738403%)" offset="0.414062"/><stop stop-opacity="1" stop-color="rgb(79.069519%, 79.069519%, 79.069519%)" offset="0.421875"/><stop stop-opacity="1" stop-color="rgb(79.400635%, 79.400635%, 79.400635%)" offset="0.429687"/><stop stop-opacity="1" stop-color="rgb(79.733276%, 79.733276%, 79.733276%)" offset="0.4375"/><stop stop-opacity="1" stop-color="rgb(80.064392%, 80.064392%, 80.064392%)" offset="0.445312"/><stop stop-opacity="1" stop-color="rgb(80.395508%, 80.395508%, 80.395508%)" offset="0.453125"/><stop stop-opacity="1" stop-color="rgb(80.726624%, 80.726624%, 80.726624%)" offset="0.460937"/><stop stop-opacity="1" stop-color="rgb(81.057739%, 81.057739%, 81.057739%)" offset="0.46875"/><stop stop-opacity="1" stop-color="rgb(81.388855%, 81.388855%, 81.388855%)" offset="0.476562"/><stop stop-opacity="1" stop-color="rgb(81.719971%, 81.719971%, 81.719971%)" offset="0.484375"/><stop stop-opacity="1" stop-color="rgb(82.051086%, 82.051086%, 82.051086%)" offset="0.492187"/><stop stop-opacity="1" stop-color="rgb(82.382202%, 82.382202%, 82.382202%)" offset="0.5"/><stop stop-opacity="1" stop-color="rgb(82.714844%, 82.714844%, 82.714844%)" offset="0.507812"/><stop stop-opacity="1" stop-color="rgb(83.045959%, 83.045959%, 83.045959%)" offset="0.515625"/><stop stop-opacity="1" stop-color="rgb(83.377075%, 83.377075%, 83.377075%)" offset="0.523437"/><stop stop-opacity="1" stop-color="rgb(83.708191%, 83.708191%, 83.708191%)" offset="0.53125"/><stop stop-opacity="1" stop-color="rgb(84.039307%, 84.039307%, 84.039307%)" offset="0.539062"/><stop stop-opacity="1" stop-color="rgb(84.370422%, 84.370422%, 84.370422%)" offset="0.546875"/><stop stop-opacity="1" stop-color="rgb(84.701538%, 84.701538%, 84.701538%)" offset="0.554687"/><stop stop-opacity="1" stop-color="rgb(85.032654%, 85.032654%, 85.032654%)" offset="0.5625"/><stop stop-opacity="1" stop-color="rgb(85.36377%, 85.36377%, 85.36377%)" offset="0.570312"/><stop stop-opacity="1" stop-color="rgb(85.696411%, 85.696411%, 85.696411%)" offset="0.578125"/><stop stop-opacity="1" stop-color="rgb(86.027527%, 86.027527%, 86.027527%)" offset="0.585937"/><stop stop-opacity="1" stop-color="rgb(86.358643%, 86.358643%, 86.358643%)" offset="0.59375"/><stop stop-opacity="1" stop-color="rgb(86.689758%, 86.689758%, 86.689758%)" offset="0.601562"/><stop stop-opacity="1" stop-color="rgb(87.020874%, 87.020874%, 87.020874%)" offset="0.609375"/><stop stop-opacity="1" stop-color="rgb(87.35199%, 87.35199%, 87.35199%)" offset="0.617187"/><stop stop-opacity="1" stop-color="rgb(87.683105%, 87.683105%, 87.683105%)" offset="0.625"/><stop stop-opacity="1" stop-color="rgb(88.014221%, 88.014221%, 88.014221%)" offset="0.632812"/><stop stop-opacity="1" stop-color="rgb(88.345337%, 88.345337%, 88.345337%)" offset="0.640625"/><stop stop-opacity="1" stop-color="rgb(88.677979%, 88.677979%, 88.677979%)" offset="0.648437"/><stop stop-opacity="1" stop-color="rgb(89.009094%, 89.009094%, 89.009094%)" offset="0.65625"/><stop stop-opacity="1" stop-color="rgb(89.34021%, 89.34021%, 89.34021%)" offset="0.664062"/><stop stop-opacity="1" stop-color="rgb(89.671326%, 89.671326%, 89.671326%)" offset="0.671875"/><stop stop-opacity="1" stop-color="rgb(90.002441%, 90.002441%, 90.002441%)" offset="0.679687"/><stop stop-opacity="1" stop-color="rgb(90.333557%, 90.333557%, 90.333557%)" offset="0.6875"/><stop stop-opacity="1" stop-color="rgb(90.664673%, 90.664673%, 90.664673%)" offset="0.695312"/><stop stop-opacity="1" stop-color="rgb(90.995789%, 90.995789%, 90.995789%)" offset="0.703125"/><stop stop-opacity="1" stop-color="rgb(91.326904%, 91.326904%, 91.326904%)" offset="0.710937"/><stop stop-opacity="1" stop-color="rgb(91.659546%, 91.659546%, 91.659546%)" offset="0.71875"/><stop stop-opacity="1" stop-color="rgb(91.990662%, 91.990662%, 91.990662%)" offset="0.726562"/><stop stop-opacity="1" stop-color="rgb(92.321777%, 92.321777%, 92.321777%)" offset="0.734375"/><stop stop-opacity="1" stop-color="rgb(92.652893%, 92.652893%, 92.652893%)" offset="0.742187"/><stop stop-opacity="1" stop-color="rgb(92.984009%, 92.984009%, 92.984009%)" offset="0.75"/><stop stop-opacity="1" stop-color="rgb(93.315125%, 93.315125%, 93.315125%)" offset="0.757812"/><stop stop-opacity="1" stop-color="rgb(93.64624%, 93.64624%, 93.64624%)" offset="0.765625"/><stop stop-opacity="1" stop-color="rgb(93.977356%, 93.977356%, 93.977356%)" offset="0.773437"/><stop stop-opacity="1" stop-color="rgb(94.309998%, 94.309998%, 94.309998%)" offset="0.78125"/><stop stop-opacity="1" stop-color="rgb(94.641113%, 94.641113%, 94.641113%)" offset="0.789062"/><stop stop-opacity="1" stop-color="rgb(94.972229%, 94.972229%, 94.972229%)" offset="0.796875"/><stop stop-opacity="1" stop-color="rgb(95.303345%, 95.303345%, 95.303345%)" offset="0.804687"/><stop stop-opacity="1" stop-color="rgb(95.63446%, 95.63446%, 95.63446%)" offset="0.8125"/><stop stop-opacity="1" stop-color="rgb(95.965576%, 95.965576%, 95.965576%)" offset="0.820312"/><stop stop-opacity="1" stop-color="rgb(96.296692%, 96.296692%, 96.296692%)" offset="0.828125"/><stop stop-opacity="1" stop-color="rgb(96.627808%, 96.627808%, 96.627808%)" offset="0.835938"/><stop stop-opacity="1" stop-color="rgb(96.958923%, 96.958923%, 96.958923%)" offset="0.84375"/><stop stop-opacity="1" stop-color="rgb(97.291565%, 97.291565%, 97.291565%)" offset="0.851562"/><stop stop-opacity="1" stop-color="rgb(97.622681%, 97.622681%, 97.622681%)" offset="0.859375"/><stop stop-opacity="1" stop-color="rgb(97.953796%, 97.953796%, 97.953796%)" offset="0.867187"/><stop stop-opacity="1" stop-color="rgb(98.284912%, 98.284912%, 98.284912%)" offset="0.875"/><stop stop-opacity="1" stop-color="rgb(98.616028%, 98.616028%, 98.616028%)" offset="0.882812"/><stop stop-opacity="1" stop-color="rgb(98.947144%, 98.947144%, 98.947144%)" offset="0.890625"/><stop stop-opacity="1" stop-color="rgb(99.278259%, 99.278259%, 99.278259%)" offset="0.898438"/><stop stop-opacity="1" stop-color="rgb(99.609375%, 99.609375%, 99.609375%)" offset="0.90625"/><stop stop-opacity="1" stop-color="rgb(99.887085%, 99.887085%, 99.887085%)" offset="0.9375"/><stop stop-opacity="1" stop-color="rgb(100%, 100%, 100%)" offset="1"/></linearGradient><clipPath id="f3658f5b80"><rect x="0" width="416" y="0" height="61"/></clipPath><clipPath id="0ad8e06df5"><path d="M 0.964844 0.46875 L 415.640625 0.46875 L 415.640625 61 L 0.964844 61 Z M 0.964844 0.46875 " clip-rule="nonzero"/></clipPath><clipPath id="5b71076375"><rect x="0" width="416" y="0" height="61"/></clipPath><clipPath id="5710628d42"><rect x="0" width="416" y="0" height="61"/></clipPath><mask id="b5ded92765"><g filter="url(#73c120a6d4)"><g transform="matrix(1, 0, 0, 1, 0, -0.000000000000014211)"><g clip-path="url(#5710628d42)"><g clip-path="url(#0ad8e06df5)"><g transform="matrix(1, 0, 0, 1, 0, -0.000000000000014211)"><g clip-path="url(#5b71076375)"><g fill="#000000" fill-opacity="1"><g transform="translate(51.791919, 50.903233)"><g><path d="M 8.40625 -6.71875 L 8.40625 -1.6875 L 6.71875 -1.6875 L 6.71875 0 L 0 0 L 0 -8.40625 L 6.71875 -8.40625 L 6.71875 -6.71875 Z M 1.6875 -1.6875 L 6.703125 -1.6875 L 6.703125 -6.71875 L 1.6875 -6.71875 Z M 1.6875 -1.6875 "/></g></g></g><g fill="#000000" fill-opacity="1"><g transform="translate(64.050504, 50.903233)"><g><path d="M 0 -1.6875 L 0 -6.71875 L 1.6875 -6.71875 L 1.6875 -8.40625 L 6.71875 -8.40625 L 6.71875 -6.71875 L 8.40625 -6.71875 L 8.40625 -1.6875 L 6.71875 -1.6875 L 6.71875 0 L 1.6875 0 L 1.6875 -1.6875 Z M 6.703125 -1.6875 L 6.703125 -6.71875 L 1.703125 -6.71875 L 1.703125 -1.6875 Z M 6.703125 -1.6875 "/></g></g></g><g fill="#000000" fill-opacity="1"><g transform="translate(76.309089, 50.903233)"><g><path d="M 6.71875 0 L 6.71875 -1.6875 L 5.046875 -1.6875 L 5.046875 -3.359375 L 3.359375 -3.359375 L 3.359375 -5.046875 L 1.6875 -5.046875 L 1.6875 0 L 0 0 L 0 -8.40625 L 1.6875 -8.40625 L 1.6875 -6.71875 L 3.359375 -6.71875 L 3.359375 -5.046875 L 5.046875 -5.046875 L 5.046875 -3.359375 L 6.71875 -3.359375 L 6.71875 -8.40625 L 8.40625 -8.40625 L 8.40625 0 Z M 6.71875 0 "/></g></g></g><g fill="#000000" fill-opacity="1"><g transform="translate(88.567674, 50.903233)"><g><path d="M 0 -5.046875 L 0 -8.40625 L 1.6875 -8.40625 L 1.6875 -5.046875 Z M 0 -5.046875 "/></g></g></g><g fill="#000000" fill-opacity="1"><g transform="translate(94.095241, 50.903233)"><g><path d="M 5.046875 -6.71875 L 5.046875 0 L 3.359375 0 L 3.359375 -6.71875 L 0 -6.71875 L 0 -8.40625 L 8.40625 -8.40625 L 8.40625 -6.71875 Z M 5.046875 -6.71875 "/></g></g></g><g fill="#000000" fill-opacity="1"><g transform="translate(106.353826, 50.903233)"><g/></g></g><g fill="#000000" fill-opacity="1"><g transform="translate(111.881392, 50.903233)"><g><path d="M 6.71875 -5.046875 L 6.71875 -3.359375 L 8.40625 -3.359375 L 8.40625 0 L 6.71875 0 L 6.71875 -3.359375 L 1.6875 -3.359375 L 1.6875 0 L 0 0 L 0 -8.40625 L 6.71875 -8.40625 L 6.71875 -6.71875 L 8.40625 -6.71875 L 8.40625 -5.046875 Z M 1.6875 -5.046875 L 6.703125 -5.046875 L 6.703125 -6.71875 L 1.6875 -6.71875 Z M 1.6875 -5.046875 "/></g></g></g><g fill="#000000" fill-opacity="1"><g transform="translate(124.139977, 50.903233)"><g><path d="M 0 0 L 0 -8.40625 L 6.71875 -8.40625 L 6.71875 -6.71875 L 1.6875 -6.71875 L 1.6875 -5.046875 L 6.71875 -5.046875 L 6.71875 -3.359375 L 1.6875 -3.359375 L 1.6875 -1.6875 L 6.71875 -1.6875 L 6.71875 0 Z M 0 0 "/></g></g></g><g fill="#000000" fill-opacity="1"><g transform="translate(134.715808, 50.903233)"><g><path d="M 6.71875 0 L 6.71875 -1.6875 L 5.046875 -1.6875 L 5.046875 -3.359375 L 3.359375 -3.359375 L 3.359375 -5.046875 L 1.6875 -5.046875 L 1.6875 0 L 0 0 L 0 -8.40625 L 1.6875 -8.40625 L 1.6875 -6.71875 L 3.359375 -6.71875 L 3.359375 -5.046875 L 5.046875 -5.046875 L 5.046875 -3.359375 L 6.71875 -3.359375 L 6.71875 -8.40625 L 8.40625 -8.40625 L 8.40625 0 Z M 6.71875 0 "/></g></g></g><g fill="#000000" fill-opacity="1"><g transform="translate(146.974392, 50.903233)"><g><path d="M 5.046875 -6.71875 L 5.046875 0 L 3.359375 0 L 3.359375 -6.71875 L 0 -6.71875 L 0 -8.40625 L 8.40625 -8.40625 L 8.40625 -6.71875 Z M 5.046875 -6.71875 "/></g></g></g><g fill="#000000" fill-opacity="1"><g transform="translate(159.232977, 50.903233)"><g/></g></g><g fill="#000000" fill-opacity="1"><g transform="translate(164.760544, 50.903233)"><g><path d="M 0 0 L 0 -8.40625 L 1.6875 -8.40625 L 1.6875 0 Z M 0 0 "/></g></g></g><g fill="#000000" fill-opacity="1"><g transform="translate(170.288111, 50.903233)"><g><path d="M 6.71875 0 L 6.71875 -1.6875 L 5.046875 -1.6875 L 5.046875 -3.359375 L 3.359375 -3.359375 L 3.359375 -5.046875 L 1.6875 -5.046875 L 1.6875 0 L 0 0 L 0 -8.40625 L 1.6875 -8.40625 L 1.6875 -6.71875 L 3.359375 -6.71875 L 3.359375 -5.046875 L 5.046875 -5.046875 L 5.046875 -3.359375 L 6.71875 -3.359375 L 6.71875 -8.40625 L 8.40625 -8.40625 L 8.40625 0 Z M 6.71875 0 "/></g></g></g><g fill="#000000" fill-opacity="1"><g transform="translate(182.546696, 50.903233)"><g><path d="M 5.046875 -6.71875 L 5.046875 0 L 3.359375 0 L 3.359375 -6.71875 L 0 -6.71875 L 0 -8.40625 L 8.40625 -8.40625 L 8.40625 -6.71875 Z M 5.046875 -6.71875 "/></g></g></g><g fill="#000000" fill-opacity="1"><g transform="translate(194.805281, 50.903233)"><g><path d="M 0 0 L 0 -8.40625 L 6.71875 -8.40625 L 6.71875 -6.71875 L 1.6875 -6.71875 L 1.6875 -5.046875 L 6.71875 -5.046875 L 6.71875 -3.359375 L 1.6875 -3.359375 L 1.6875 -1.6875 L 6.71875 -1.6875 L 6.71875 0 Z M 0 0 "/></g></g></g><g fill="#000000" fill-opacity="1"><g transform="translate(205.381111, 50.903233)"><g><path d="M 0 0 L 0 -8.40625 L 1.671875 -8.40625 L 1.671875 -1.6875 L 6.71875 -1.6875 L 6.71875 0 Z M 0 0 "/></g></g></g><g fill="#000000" fill-opacity="1"><g transform="translate(215.956941, 50.903233)"><g><path d="M 0 0 L 0 -8.40625 L 1.671875 -8.40625 L 1.671875 -1.6875 L 6.71875 -1.6875 L 6.71875 0 Z M 0 0 "/></g></g></g><g fill="#000000" fill-opacity="1"><g transform="translate(226.532772, 50.903233)"><g><path d="M 0 0 L 0 -8.40625 L 1.6875 -8.40625 L 1.6875 0 Z M 0 0 "/></g></g></g><g fill="#000000" fill-opacity="1"><g transform="translate(232.060338, 50.903233)"><g><path d="M 1.6875 0 L 1.6875 -1.6875 L 0 -1.6875 L 0 -6.71875 L 1.6875 -6.71875 L 1.6875 -1.6875 L 6.71875 -1.6875 L 6.71875 -3.359375 L 5.046875 -3.359375 L 5.046875 -5.046875 L 8.40625 -5.046875 L 8.40625 0 Z M 1.6875 -6.71875 L 1.6875 -8.40625 L 6.71875 -8.40625 L 6.71875 -6.71875 Z M 1.6875 -6.71875 "/></g></g></g><g fill="#000000" fill-opacity="1"><g transform="translate(244.318923, 50.903233)"><g><path d="M 0 0 L 0 -8.40625 L 6.71875 -8.40625 L 6.71875 -6.71875 L 1.6875 -6.71875 L 1.6875 -5.046875 L 6.71875 -5.046875 L 6.71875 -3.359375 L 1.6875 -3.359375 L 1.6875 -1.6875 L 6.71875 -1.6875 L 6.71875 0 Z M 0 0 "/></g></g></g><g fill="#000000" fill-opacity="1"><g transform="translate(254.894754, 50.903233)"><g><path d="M 6.71875 0 L 6.71875 -1.6875 L 5.046875 -1.6875 L 5.046875 -3.359375 L 3.359375 -3.359375 L 3.359375 -5.046875 L 1.6875 -5.046875 L 1.6875 0 L 0 0 L 0 -8.40625 L 1.6875 -8.40625 L 1.6875 -6.71875 L 3.359375 -6.71875 L 3.359375 -5.046875 L 5.046875 -5.046875 L 5.046875 -3.359375 L 6.71875 -3.359375 L 6.71875 -8.40625 L 8.40625 -8.40625 L 8.40625 0 Z M 6.71875 0 "/></g></g></g><g fill="#000000" fill-opacity="1"><g transform="translate(267.153339, 50.903233)"><g><path d="M 1.6875 -6.71875 L 1.6875 -1.6875 L 6.71875 -1.6875 L 6.71875 0 L 1.6875 0 L 1.6875 -1.6875 L 0 -1.6875 L 0 -6.71875 Z M 6.71875 -5.046875 L 6.71875 -6.71875 L 1.6875 -6.71875 L 1.6875 -8.40625 L 6.71875 -8.40625 L 6.71875 -6.71875 L 8.40625 -6.71875 L 8.40625 -5.046875 Z M 6.71875 -1.6875 L 6.71875 -3.359375 L 8.40625 -3.359375 L 8.40625 -1.6875 Z M 6.71875 -1.6875 "/></g></g></g><g fill="#000000" fill-opacity="1"><g transform="translate(279.411924, 50.903233)"><g><path d="M 0 0 L 0 -8.40625 L 6.71875 -8.40625 L 6.71875 -6.71875 L 1.6875 -6.71875 L 1.6875 -5.046875 L 6.71875 -5.046875 L 6.71875 -3.359375 L 1.6875 -3.359375 L 1.6875 -1.6875 L 6.71875 -1.6875 L 6.71875 0 Z M 0 0 "/></g></g></g><g fill="#000000" fill-opacity="1"><g transform="translate(289.987754, 50.903233)"><g><path d="M 0 0 L 0 -1.6875 L 1.6875 -1.6875 L 1.6875 0 Z M 0 0 "/></g></g></g><g fill="#000000" fill-opacity="1"><g transform="translate(295.51532, 50.903233)"><g/></g></g><g fill="#000000" fill-opacity="1"><g transform="translate(301.042887, 50.903233)"><g><path d="M 0 -1.6875 L 0 -6.71875 L 1.6875 -6.71875 L 1.6875 -8.40625 L 6.71875 -8.40625 L 6.71875 -6.71875 L 8.40625 -6.71875 L 8.40625 -1.6875 L 6.71875 -1.6875 L 6.71875 0 L 1.6875 0 L 1.6875 -1.6875 Z M 6.703125 -1.6875 L 6.703125 -6.71875 L 1.703125 -6.71875 L 1.703125 -1.6875 Z M 6.703125 -1.6875 "/></g></g></g><g fill="#000000" fill-opacity="1"><g transform="translate(313.301472, 50.903233)"><g><path d="M 1.6875 0 L 1.6875 -3.359375 L 0 -3.359375 L 0 -8.40625 L 1.6875 -8.40625 L 1.6875 -3.359375 L 3.359375 -3.359375 L 3.359375 0 Z M 5.046875 -6.71875 L 5.046875 -8.40625 L 6.71875 -8.40625 L 6.71875 -6.71875 L 8.40625 -6.71875 L 8.40625 -3.359375 L 10.09375 -3.359375 L 10.09375 0 L 8.40625 0 L 8.40625 -3.359375 L 6.71875 -3.359375 L 6.71875 -6.71875 Z M 10.09375 -3.359375 L 10.09375 -8.40625 L 11.765625 -8.40625 L 11.765625 -3.359375 Z M 3.359375 -3.359375 L 3.359375 -6.734375 L 5.046875 -6.734375 L 5.046875 -3.359375 Z M 3.359375 -3.359375 "/></g></g></g><g fill="#000000" fill-opacity="1"><g transform="translate(328.917358, 50.903233)"><g><path d="M 6.71875 0 L 6.71875 -1.6875 L 5.046875 -1.6875 L 5.046875 -3.359375 L 3.359375 -3.359375 L 3.359375 -5.046875 L 1.6875 -5.046875 L 1.6875 0 L 0 0 L 0 -8.40625 L 1.6875 -8.40625 L 1.6875 -6.71875 L 3.359375 -6.71875 L 3.359375 -5.046875 L 5.046875 -5.046875 L 5.046875 -3.359375 L 6.71875 -3.359375 L 6.71875 -8.40625 L 8.40625 -8.40625 L 8.40625 0 Z M 6.71875 0 "/></g></g></g><g fill="#000000" fill-opacity="1"><g transform="translate(341.175943, 50.903233)"><g/></g></g><g fill="#000000" fill-opacity="1"><g transform="translate(346.703509, 50.903233)"><g><path d="M 0 0 L 0 -8.40625 L 1.6875 -8.40625 L 1.6875 0 Z M 0 0 "/></g></g></g><g fill="#000000" fill-opacity="1"><g transform="translate(352.231076, 50.903233)"><g><path d="M 5.046875 -6.71875 L 5.046875 0 L 3.359375 0 L 3.359375 -6.71875 L 0 -6.71875 L 0 -8.40625 L 8.40625 -8.40625 L 8.40625 -6.71875 Z M 5.046875 -6.71875 "/></g></g></g></g></g></g></g></g></g></mask><clipPath id="e12fbe6971"><path d="M 17.777344 1.871094 L 397.425781 1.871094 L 397.425781 61 L 17.777344 61 Z M 17.777344 1.871094 " clip-rule="nonzero"/></clipPath><clipPath id="c33159e605"><rect x="0" width="416" y="0" height="61"/></clipPath><clipPath id="f78ee81a51"><rect x="0" width="416" y="0" height="61"/></clipPath><clipPath id="83291d55ae"><rect x="0" width="416" y="0" height="61"/></clipPath></defs><g transform="matrix(1, 0, 0, 1, 44, -0.000000000000007527)"><g clip-path="url(#213158a5d9)"><g clip-path="url(#eb78d24932)"><path fill="#adcb21" d="M 733.558594 32.097656 L 743.652344 32.097656 L 743.652344 42.195312 L 733.558594 42.195312 Z M 733.558594 32.097656 " fill-opacity="1" fill-rule="evenodd"/></g><g clip-path="url(#a5bf489aa9)"><path fill="#adcb21" d="M 733.960938 32.503906 L 733.960938 41.789062 L 743.246094 41.789062 L 743.246094 32.503906 Z M 733.152344 42.195312 L 733.152344 31.691406 L 744.058594 31.691406 L 744.058594 42.601562 L 733.152344 42.601562 Z M 733.152344 42.195312 " fill-opacity="1" fill-rule="nonzero"/></g><path fill="#adcb21" d="M 743.652344 42.195312 L 753.75 42.195312 L 753.75 52.289062 L 743.652344 52.289062 Z M 743.652344 42.195312 " fill-opacity="1" fill-rule="evenodd"/><path fill="#adcb21" d="M 744.058594 42.601562 L 744.058594 51.882812 L 753.34375 51.882812 L 753.34375 42.601562 Z M 743.246094 52.289062 L 743.246094 41.789062 L 754.15625 41.789062 L 754.15625 52.695312 L 743.246094 52.695312 Z M 743.246094 52.289062 " fill-opacity="1" fill-rule="nonzero"/><path fill="#adcb21" d="M 753.75 52.289062 L 763.847656 52.289062 L 763.847656 62.386719 L 753.75 62.386719 Z M 753.75 52.289062 " fill-opacity="1" fill-rule="evenodd"/><path fill="#adcb21" d="M 754.15625 52.695312 L 754.15625 61.980469 L 763.441406 61.980469 L 763.441406 52.695312 Z M 753.34375 62.386719 L 753.34375 51.886719 L 764.253906 51.886719 L 764.253906 62.792969 L 753.34375 62.792969 Z M 753.34375 62.386719 " fill-opacity="1" fill-rule="nonzero"/><path fill="#adcb21" d="M 763.847656 62.386719 L 773.945312 62.386719 L 773.945312 72.484375 L 763.847656 72.484375 Z M 763.847656 62.386719 " fill-opacity="1" fill-rule="evenodd"/><path fill="#adcb21" d="M 764.253906 62.792969 L 764.253906 72.078125 L 773.539062 72.078125 L 773.539062 62.792969 Z M 763.441406 72.484375 L 763.441406 61.980469 L 774.351562 61.980469 L 774.351562 72.890625 L 763.441406 72.890625 Z M 763.441406 72.484375 " fill-opacity="1" fill-rule="nonzero"/><path fill="#adcb21" d="M 753.75 72.484375 L 763.847656 72.484375 L 763.847656 82.582031 L 753.75 82.582031 Z M 753.75 72.484375 " fill-opacity="1" fill-rule="evenodd"/><path fill="#adcb21" d="M 763.441406 72.890625 L 754.15625 72.890625 L 754.15625 82.175781 L 763.441406 82.175781 Z M 753.75 72.078125 L 764.253906 72.078125 L 764.253906 82.988281 L 753.34375 82.988281 L 753.34375 72.078125 Z M 753.75 72.078125 " fill-opacity="1" fill-rule="nonzero"/><path fill="#adcb21" d="M 743.652344 82.582031 L 753.75 82.582031 L 753.75 92.679688 L 743.652344 92.679688 Z M 743.652344 82.582031 " fill-opacity="1" fill-rule="evenodd"/><path fill="#adcb21" d="M 753.34375 82.988281 L 744.058594 82.988281 L 744.058594 92.273438 L 753.34375 92.273438 Z M 743.652344 82.175781 L 754.15625 82.175781 L 754.15625 93.085938 L 743.246094 93.085938 L 743.246094 82.175781 Z M 743.652344 82.175781 " fill-opacity="1" fill-rule="nonzero"/><g clip-path="url(#a82d3b366c)"><path fill="#adcb21" d="M 733.558594 92.679688 L 743.652344 92.679688 L 743.652344 102.777344 L 733.558594 102.777344 Z M 733.558594 92.679688 " fill-opacity="1" fill-rule="evenodd"/></g><g clip-path="url(#72f4dad17c)"><path fill="#adcb21" d="M 743.246094 93.085938 L 733.960938 93.085938 L 733.960938 102.371094 L 743.246094 102.371094 Z M 733.558594 92.273438 L 744.058594 92.273438 L 744.058594 103.183594 L 733.152344 103.183594 L 733.152344 92.273438 Z M 733.558594 92.273438 " fill-opacity="1" fill-rule="nonzero"/></g><g clip-path="url(#3b05c5df72)"><path fill="#adcb21" d="M 733.558594 42.195312 L 743.652344 42.195312 L 743.652344 52.289062 L 733.558594 52.289062 Z M 733.558594 42.195312 " fill-opacity="1" fill-rule="evenodd"/></g><g clip-path="url(#8c17c606c5)"><path fill="#adcb21" d="M 733.960938 51.882812 L 743.246094 51.882812 L 743.246094 42.601562 L 733.960938 42.601562 Z M 743.652344 52.695312 L 733.152344 52.695312 L 733.152344 41.789062 L 744.058594 41.789062 L 744.058594 52.695312 Z M 743.652344 52.695312 " fill-opacity="1" fill-rule="nonzero"/></g><path fill="#adcb21" d="M 743.652344 52.289062 L 753.75 52.289062 L 753.75 62.386719 L 743.652344 62.386719 Z M 743.652344 52.289062 " fill-opacity="1" fill-rule="evenodd"/><path fill="#adcb21" d="M 744.058594 52.695312 L 744.058594 61.980469 L 753.34375 61.980469 L 753.34375 52.695312 Z M 743.246094 62.386719 L 743.246094 51.886719 L 754.15625 51.886719 L 754.15625 62.792969 L 743.246094 62.792969 Z M 743.246094 62.386719 " fill-opacity="1" fill-rule="nonzero"/><path fill="#adcb21" d="M 753.75 62.386719 L 763.847656 62.386719 L 763.847656 72.484375 L 753.75 72.484375 Z M 753.75 62.386719 " fill-opacity="1" fill-rule="evenodd"/><path fill="#adcb21" d="M 754.15625 62.792969 L 754.15625 72.078125 L 763.441406 72.078125 L 763.441406 62.792969 Z M 753.34375 72.484375 L 753.34375 61.980469 L 764.253906 61.980469 L 764.253906 72.890625 L 753.34375 72.890625 Z M 753.34375 72.484375 " fill-opacity="1" fill-rule="nonzero"/><path fill="#adcb21" d="M 743.652344 72.484375 L 753.75 72.484375 L 753.75 82.582031 L 743.652344 82.582031 Z M 743.652344 72.484375 " fill-opacity="1" fill-rule="evenodd"/><path fill="#adcb21" d="M 753.34375 72.890625 L 744.058594 72.890625 L 744.058594 82.175781 L 753.34375 82.175781 Z M 743.652344 72.078125 L 754.15625 72.078125 L 754.15625 82.988281 L 743.246094 82.988281 L 743.246094 72.078125 Z M 743.652344 72.078125 " fill-opacity="1" fill-rule="nonzero"/><g clip-path="url(#a192d2b429)"><path fill="#adcb21" d="M 733.558594 82.582031 L 743.652344 82.582031 L 743.652344 92.679688 L 733.558594 92.679688 Z M 733.558594 82.582031 " fill-opacity="1" fill-rule="evenodd"/></g><g clip-path="url(#6b4a412945)"><path fill="#adcb21" d="M 743.246094 82.988281 L 733.960938 82.988281 L 733.960938 92.273438 L 743.246094 92.273438 Z M 733.558594 82.175781 L 744.058594 82.175781 L 744.058594 93.085938 L 733.152344 93.085938 L 733.152344 82.175781 Z M 733.558594 82.175781 " fill-opacity="1" fill-rule="nonzero"/></g><path fill="#adcb21" d="M 743.652344 62.386719 L 753.75 62.386719 L 753.75 72.484375 L 743.652344 72.484375 Z M 743.652344 62.386719 " fill-opacity="1" fill-rule="evenodd"/><path fill="#adcb21" d="M 744.058594 72.078125 L 753.34375 72.078125 L 753.34375 62.792969 L 744.058594 62.792969 Z M 753.75 72.890625 L 743.246094 72.890625 L 743.246094 61.980469 L 754.15625 61.980469 L 754.15625 72.890625 Z M 753.75 72.890625 " fill-opacity="1" fill-rule="nonzero"/><g clip-path="url(#5e96d739c2)"><path fill="#adcb21" d="M 733.558594 62.386719 L 743.652344 62.386719 L 743.652344 72.484375 L 733.558594 72.484375 Z M 733.558594 62.386719 " fill-opacity="1" fill-rule="evenodd"/></g><g clip-path="url(#5497950581)"><path fill="#adcb21" d="M 743.246094 72.078125 L 743.246094 62.792969 L 733.960938 62.792969 L 733.960938 72.078125 Z M 744.058594 62.386719 L 744.058594 72.890625 L 733.152344 72.890625 L 733.152344 61.980469 L 744.058594 61.980469 Z M 744.058594 62.386719 " fill-opacity="1" fill-rule="nonzero"/></g><g clip-path="url(#64d0652500)"><path fill="#adcb21" d="M 733.558594 52.289062 L 743.652344 52.289062 L 743.652344 62.386719 L 733.558594 62.386719 Z M 733.558594 52.289062 " fill-opacity="1" fill-rule="evenodd"/></g><g clip-path="url(#bd365d1c5b)"><path fill="#adcb21" d="M 733.960938 52.695312 L 733.960938 61.980469 L 743.246094 61.980469 L 743.246094 52.695312 Z M 733.152344 62.386719 L 733.152344 51.886719 L 744.058594 51.886719 L 744.058594 62.792969 L 733.152344 62.792969 Z M 733.152344 62.386719 " fill-opacity="1" fill-rule="nonzero"/></g><g clip-path="url(#b261aeffed)"><path fill="#adcb21" d="M 733.558594 72.484375 L 743.652344 72.484375 L 743.652344 82.582031 L 733.558594 82.582031 Z M 733.558594 72.484375 " fill-opacity="1" fill-rule="evenodd"/></g><g clip-path="url(#5e6e566735)"><path fill="#adcb21" d="M 743.246094 72.890625 L 733.960938 72.890625 L 733.960938 82.175781 L 743.246094 82.175781 Z M 733.558594 72.078125 L 744.058594 72.078125 L 744.058594 82.988281 L 733.152344 82.988281 L 733.152344 72.078125 Z M 733.558594 72.078125 " fill-opacity="1" fill-rule="nonzero"/></g><path fill="#adcb21" d="M 763.847656 32.097656 L 773.945312 32.097656 L 773.945312 42.195312 L 763.847656 42.195312 Z M 763.847656 32.097656 " fill-opacity="1" fill-rule="evenodd"/><g clip-path="url(#0743506971)"><path fill="#adcb21" d="M 764.253906 32.503906 L 764.253906 41.789062 L 773.539062 41.789062 L 773.539062 32.503906 Z M 763.441406 42.195312 L 763.441406 31.691406 L 774.351562 31.691406 L 774.351562 42.601562 L 763.441406 42.601562 Z M 763.441406 42.195312 " fill-opacity="1" fill-rule="nonzero"/></g><path fill="#adcb21" d="M 773.945312 42.195312 L 784.042969 42.195312 L 784.042969 52.289062 L 773.945312 52.289062 Z M 773.945312 42.195312 " fill-opacity="1" fill-rule="evenodd"/><path fill="#adcb21" d="M 774.351562 42.601562 L 774.351562 51.882812 L 783.636719 51.882812 L 783.636719 42.601562 Z M 773.539062 52.289062 L 773.539062 41.789062 L 784.449219 41.789062 L 784.449219 52.695312 L 773.539062 52.695312 Z M 773.539062 52.289062 " fill-opacity="1" fill-rule="nonzero"/><path fill="#adcb21" d="M 784.042969 52.289062 L 794.140625 52.289062 L 794.140625 62.386719 L 784.042969 62.386719 Z M 784.042969 52.289062 " fill-opacity="1" fill-rule="evenodd"/><path fill="#adcb21" d="M 784.449219 52.695312 L 784.449219 61.980469 L 793.734375 61.980469 L 793.734375 52.695312 Z M 783.636719 62.386719 L 783.636719 51.886719 L 794.542969 51.886719 L 794.542969 62.792969 L 783.636719 62.792969 Z M 783.636719 62.386719 " fill-opacity="1" fill-rule="nonzero"/><path fill="#adcb21" d="M 794.140625 62.386719 L 804.234375 62.386719 L 804.234375 72.484375 L 794.140625 72.484375 Z M 794.140625 62.386719 " fill-opacity="1" fill-rule="evenodd"/><path fill="#adcb21" d="M 794.542969 62.792969 L 794.542969 72.078125 L 803.828125 72.078125 L 803.828125 62.792969 Z M 793.734375 72.484375 L 793.734375 61.980469 L 804.640625 61.980469 L 804.640625 72.890625 L 793.734375 72.890625 Z M 793.734375 72.484375 " fill-opacity="1" fill-rule="nonzero"/><path fill="#adcb21" d="M 784.042969 72.484375 L 794.140625 72.484375 L 794.140625 82.582031 L 784.042969 82.582031 Z M 784.042969 72.484375 " fill-opacity="1" fill-rule="evenodd"/><path fill="#adcb21" d="M 793.734375 72.890625 L 784.449219 72.890625 L 784.449219 82.175781 L 793.734375 82.175781 Z M 784.042969 72.078125 L 794.542969 72.078125 L 794.542969 82.988281 L 783.636719 82.988281 L 783.636719 72.078125 Z M 784.042969 72.078125 " fill-opacity="1" fill-rule="nonzero"/><path fill="#adcb21" d="M 773.945312 82.582031 L 784.042969 82.582031 L 784.042969 92.679688 L 773.945312 92.679688 Z M 773.945312 82.582031 " fill-opacity="1" fill-rule="evenodd"/><path fill="#adcb21" d="M 783.636719 82.988281 L 774.351562 82.988281 L 774.351562 92.273438 L 783.636719 92.273438 Z M 773.945312 82.175781 L 784.449219 82.175781 L 784.449219 93.085938 L 773.539062 93.085938 L 773.539062 82.175781 Z M 773.945312 82.175781 " fill-opacity="1" fill-rule="nonzero"/><path fill="#adcb21" d="M 763.847656 92.679688 L 773.945312 92.679688 L 773.945312 102.777344 L 763.847656 102.777344 Z M 763.847656 92.679688 " fill-opacity="1" fill-rule="evenodd"/><g clip-path="url(#52b87e8394)"><path fill="#adcb21" d="M 773.539062 93.085938 L 764.253906 93.085938 L 764.253906 102.371094 L 773.539062 102.371094 Z M 763.847656 92.273438 L 774.351562 92.273438 L 774.351562 103.183594 L 763.441406 103.183594 L 763.441406 92.273438 Z M 763.847656 92.273438 " fill-opacity="1" fill-rule="nonzero"/></g><path fill="#adcb21" d="M 794.140625 32.097656 L 804.234375 32.097656 L 804.234375 42.195312 L 794.140625 42.195312 Z M 794.140625 32.097656 " fill-opacity="1" fill-rule="evenodd"/><g clip-path="url(#2e806f7b8c)"><path fill="#adcb21" d="M 794.542969 32.503906 L 794.542969 41.789062 L 803.828125 41.789062 L 803.828125 32.503906 Z M 793.734375 42.195312 L 793.734375 31.691406 L 804.640625 31.691406 L 804.640625 42.601562 L 793.734375 42.601562 Z M 793.734375 42.195312 " fill-opacity="1" fill-rule="nonzero"/></g><path fill="#adcb21" d="M 804.234375 42.195312 L 814.332031 42.195312 L 814.332031 52.289062 L 804.234375 52.289062 Z M 804.234375 42.195312 " fill-opacity="1" fill-rule="evenodd"/><path fill="#adcb21" d="M 804.640625 42.601562 L 804.640625 51.882812 L 813.925781 51.882812 L 813.925781 42.601562 Z M 803.828125 52.289062 L 803.828125 41.789062 L 814.738281 41.789062 L 814.738281 52.695312 L 803.828125 52.695312 Z M 803.828125 52.289062 " fill-opacity="1" fill-rule="nonzero"/><path fill="#adcb21" d="M 814.332031 52.289062 L 824.429688 52.289062 L 824.429688 62.386719 L 814.332031 62.386719 Z M 814.332031 52.289062 " fill-opacity="1" fill-rule="evenodd"/><path fill="#adcb21" d="M 814.738281 52.695312 L 814.738281 61.980469 L 824.023438 61.980469 L 824.023438 52.695312 Z M 813.925781 62.386719 L 813.925781 51.886719 L 824.835938 51.886719 L 824.835938 62.792969 L 813.925781 62.792969 Z M 813.925781 62.386719 " fill-opacity="1" fill-rule="nonzero"/><path fill="#adcb21" d="M 824.429688 62.386719 L 834.527344 62.386719 L 834.527344 72.484375 L 824.429688 72.484375 Z M 824.429688 62.386719 " fill-opacity="1" fill-rule="evenodd"/><path fill="#adcb21" d="M 824.835938 62.792969 L 824.835938 72.078125 L 834.121094 72.078125 L 834.121094 62.792969 Z M 824.023438 72.484375 L 824.023438 61.980469 L 834.933594 61.980469 L 834.933594 72.890625 L 824.023438 72.890625 Z M 824.023438 72.484375 " fill-opacity="1" fill-rule="nonzero"/><path fill="#adcb21" d="M 814.332031 72.484375 L 824.429688 72.484375 L 824.429688 82.582031 L 814.332031 82.582031 Z M 814.332031 72.484375 " fill-opacity="1" fill-rule="evenodd"/><path fill="#adcb21" d="M 824.023438 72.890625 L 814.738281 72.890625 L 814.738281 82.175781 L 824.023438 82.175781 Z M 814.332031 72.078125 L 824.835938 72.078125 L 824.835938 82.988281 L 813.925781 82.988281 L 813.925781 72.078125 Z M 814.332031 72.078125 " fill-opacity="1" fill-rule="nonzero"/><path fill="#adcb21" d="M 804.234375 82.582031 L 814.332031 82.582031 L 814.332031 92.679688 L 804.234375 92.679688 Z M 804.234375 82.582031 " fill-opacity="1" fill-rule="evenodd"/><path fill="#adcb21" d="M 813.925781 82.988281 L 804.640625 82.988281 L 804.640625 92.273438 L 813.925781 92.273438 Z M 804.234375 82.175781 L 814.738281 82.175781 L 814.738281 93.085938 L 803.828125 93.085938 L 803.828125 82.175781 Z M 804.234375 82.175781 " fill-opacity="1" fill-rule="nonzero"/><path fill="#adcb21" d="M 794.140625 92.679688 L 804.234375 92.679688 L 804.234375 102.777344 L 794.140625 102.777344 Z M 794.140625 92.679688 " fill-opacity="1" fill-rule="evenodd"/><g clip-path="url(#711a227069)"><path fill="#adcb21" d="M 803.828125 93.085938 L 794.542969 93.085938 L 794.542969 102.371094 L 803.828125 102.371094 Z M 794.140625 92.273438 L 804.640625 92.273438 L 804.640625 103.183594 L 793.734375 103.183594 L 793.734375 92.273438 Z M 794.140625 92.273438 " fill-opacity="1" fill-rule="nonzero"/></g><g clip-path="url(#b23374d1e1)"><g mask="url(#bb9a4b93b9)"><g transform="matrix(1, 0, 0, 1, 0, -0.000000000000007527)"><g clip-path="url(#47749e916c)"><g clip-path="url(#ee953a64da)"><g transform="matrix(1, 0, 0, 1, 0, -0.000000000000007527)"><g clip-path="url(#21b546abcb)"><g fill="#000000" fill-opacity="0.302"><g transform="translate(14.402552, 109.549494)"><g><path d="M 0 -15.03125 L 0 -60.046875 L 15.03125 -60.046875 L 15.03125 -75.078125 L 60.046875 -75.078125 L 60.046875 -60.046875 L 75.078125 -60.046875 L 75.078125 -15.03125 L 60.046875 -15.03125 L 60.046875 0 L 15.03125 0 L 15.03125 -15.03125 Z M 59.890625 -15.03125 L 59.890625 -60.046875 L 15.171875 -60.046875 L 15.171875 -15.03125 Z M 59.890625 -15.03125 "/></g></g></g><g fill="#000000" fill-opacity="0.302"><g transform="translate(123.885613, 109.549494)"><g><path d="M 60.046875 -45.09375 L 60.046875 -30.0625 L 15.03125 -30.0625 L 15.03125 0 L 0 0 L 0 -75.078125 L 60.046875 -75.078125 L 60.046875 -60.046875 L 75.078125 -60.046875 L 75.078125 -45.09375 Z M 59.890625 -45.09375 L 59.890625 -60.046875 L 15.03125 -60.046875 L 15.03125 -45.09375 Z M 59.890625 -45.09375 "/></g></g></g><g fill="#000000" fill-opacity="0.302"><g transform="translate(218.339914, 109.549494)"><g><path d="M 0 0 L 0 -75.078125 L 60.046875 -75.078125 L 60.046875 -60.046875 L 15.03125 -60.046875 L 15.03125 -45.09375 L 60.046875 -45.09375 L 60.046875 -30.0625 L 15.03125 -30.0625 L 15.03125 -15.03125 L 60.046875 -15.03125 L 60.046875 0 Z M 0 0 "/></g></g></g><g fill="#000000" fill-opacity="0.302"><g transform="translate(312.794215, 109.549494)"><g><path d="M 60.046875 0 L 60.046875 -15.03125 L 45.09375 -15.03125 L 45.09375 -30.0625 L 30.0625 -30.0625 L 30.0625 -45.09375 L 15.03125 -45.09375 L 15.03125 0 L 0 0 L 0 -75.078125 L 15.03125 -75.078125 L 15.03125 -60.046875 L 30.0625 -60.046875 L 30.0625 -45.09375 L 45.09375 -45.09375 L 45.09375 -30.0625 L 60.046875 -30.0625 L 60.046875 -75.078125 L 75.078125 -75.078125 L 75.078125 0 Z M 60.046875 0 "/></g></g></g><g fill="#000000" fill-opacity="0.302"><g transform="translate(422.277276, 109.549494)"><g><path d="M 60.046875 -15.03125 L 60.046875 -30.0625 L 15.03125 -30.0625 L 15.03125 -45.09375 L 0 -45.09375 L 0 -60.046875 L 15.03125 -60.046875 L 15.03125 -45.09375 L 60.046875 -45.09375 L 60.046875 -30.0625 L 75.078125 -30.0625 L 75.078125 -15.03125 L 60.046875 -15.03125 L 60.046875 0 L 0 0 L 0 -15.03125 Z M 15.03125 -60.046875 L 15.03125 -75.078125 L 75.078125 -75.078125 L 75.078125 -60.046875 Z M 15.03125 -60.046875 "/></g></g></g><g fill="#000000" fill-opacity="0.302"><g transform="translate(531.760336, 109.549494)"><g><path d="M 30.0625 -60.046875 L 30.0625 -75.078125 L 45.015625 -75.078125 L 45.015625 -60.046875 L 60.046875 -60.046875 L 60.046875 -30.0625 L 75.078125 -30.0625 L 75.078125 0 L 60.046875 0 L 60.046875 -15.03125 L 15.03125 -15.03125 L 15.03125 0 L 0 0 L 0 -30.0625 L 15.03125 -30.0625 L 15.03125 -60.046875 Z M 45.015625 -30.0625 L 45.015625 -59.890625 L 30.0625 -59.890625 L 30.0625 -30.0625 Z M 45.015625 -30.0625 "/></g></g></g><g fill="#000000" fill-opacity="0.302"><g transform="translate(641.243397, 109.549494)"><g><path d="M 15.03125 0 L 15.03125 -15.03125 L 0 -15.03125 L 0 -60.046875 L 15.03125 -60.046875 L 15.03125 -15.03125 L 60.046875 -15.03125 L 60.046875 -30.0625 L 45.015625 -30.0625 L 45.015625 -45.09375 L 75.078125 -45.09375 L 75.078125 0 Z M 15.03125 -60.046875 L 15.03125 -75.078125 L 60.046875 -75.078125 L 60.046875 -60.046875 Z M 15.03125 -60.046875 "/></g></g></g><g fill="#000000" fill-opacity="0.502"><g transform="translate(7.76567, 102.912606)"><g><path d="M 0 -15.03125 L 0 -60.046875 L 15.03125 -60.046875 L 15.03125 -75.078125 L 60.046875 -75.078125 L 60.046875 -60.046875 L 75.078125 -60.046875 L 75.078125 -15.03125 L 60.046875 -15.03125 L 60.046875 0 L 15.03125 0 L 15.03125 -15.03125 Z M 59.890625 -15.03125 L 59.890625 -60.046875 L 15.171875 -60.046875 L 15.171875 -15.03125 Z M 59.890625 -15.03125 "/></g></g></g><g fill="#000000" fill-opacity="0.502"><g transform="translate(117.24873, 102.912606)"><g><path d="M 60.046875 -45.09375 L 60.046875 -30.0625 L 15.03125 -30.0625 L 15.03125 0 L 0 0 L 0 -75.078125 L 60.046875 -75.078125 L 60.046875 -60.046875 L 75.078125 -60.046875 L 75.078125 -45.09375 Z M 59.890625 -45.09375 L 59.890625 -60.046875 L 15.03125 -60.046875 L 15.03125 -45.09375 Z M 59.890625 -45.09375 "/></g></g></g><g fill="#000000" fill-opacity="0.502"><g transform="translate(211.703031, 102.912606)"><g><path d="M 0 0 L 0 -75.078125 L 60.046875 -75.078125 L 60.046875 -60.046875 L 15.03125 -60.046875 L 15.03125 -45.09375 L 60.046875 -45.09375 L 60.046875 -30.0625 L 15.03125 -30.0625 L 15.03125 -15.03125 L 60.046875 -15.03125 L 60.046875 0 Z M 0 0 "/></g></g></g><g fill="#000000" fill-opacity="0.502"><g transform="translate(306.157332, 102.912606)"><g><path d="M 60.046875 0 L 60.046875 -15.03125 L 45.09375 -15.03125 L 45.09375 -30.0625 L 30.0625 -30.0625 L 30.0625 -45.09375 L 15.03125 -45.09375 L 15.03125 0 L 0 0 L 0 -75.078125 L 15.03125 -75.078125 L 15.03125 -60.046875 L 30.0625 -60.046875 L 30.0625 -45.09375 L 45.09375 -45.09375 L 45.09375 -30.0625 L 60.046875 -30.0625 L 60.046875 -75.078125 L 75.078125 -75.078125 L 75.078125 0 Z M 60.046875 0 "/></g></g></g><g fill="#000000" fill-opacity="0.502"><g transform="translate(415.640393, 102.912606)"><g><path d="M 60.046875 -15.03125 L 60.046875 -30.0625 L 15.03125 -30.0625 L 15.03125 -45.09375 L 0 -45.09375 L 0 -60.046875 L 15.03125 -60.046875 L 15.03125 -45.09375 L 60.046875 -45.09375 L 60.046875 -30.0625 L 75.078125 -30.0625 L 75.078125 -15.03125 L 60.046875 -15.03125 L 60.046875 0 L 0 0 L 0 -15.03125 Z M 15.03125 -60.046875 L 15.03125 -75.078125 L 75.078125 -75.078125 L 75.078125 -60.046875 Z M 15.03125 -60.046875 "/></g></g></g><g fill="#000000" fill-opacity="0.502"><g transform="translate(525.123453, 102.912606)"><g><path d="M 30.0625 -60.046875 L 30.0625 -75.078125 L 45.015625 -75.078125 L 45.015625 -60.046875 L 60.046875 -60.046875 L 60.046875 -30.0625 L 75.078125 -30.0625 L 75.078125 0 L 60.046875 0 L 60.046875 -15.03125 L 15.03125 -15.03125 L 15.03125 0 L 0 0 L 0 -30.0625 L 15.03125 -30.0625 L 15.03125 -60.046875 Z M 45.015625 -30.0625 L 45.015625 -59.890625 L 30.0625 -59.890625 L 30.0625 -30.0625 Z M 45.015625 -30.0625 "/></g></g></g><g fill="#000000" fill-opacity="0.502"><g transform="translate(634.606514, 102.912606)"><g><path d="M 15.03125 0 L 15.03125 -15.03125 L 0 -15.03125 L 0 -60.046875 L 15.03125 -60.046875 L 15.03125 -15.03125 L 60.046875 -15.03125 L 60.046875 -30.0625 L 45.015625 -30.0625 L 45.015625 -45.09375 L 75.078125 -45.09375 L 75.078125 0 Z M 15.03125 -60.046875 L 15.03125 -75.078125 L 60.046875 -75.078125 L 60.046875 -60.046875 Z M 15.03125 -60.046875 "/></g></g></g><g fill="#ffffff" fill-opacity="1"><g transform="translate(1.128784, 96.275723)"><g><path d="M 0 -15.03125 L 0 -60.046875 L 15.03125 -60.046875 L 15.03125 -75.078125 L 60.046875 -75.078125 L 60.046875 -60.046875 L 75.078125 -60.046875 L 75.078125 -15.03125 L 60.046875 -15.03125 L 60.046875 0 L 15.03125 0 L 15.03125 -15.03125 Z M 59.890625 -15.03125 L 59.890625 -60.046875 L 15.171875 -60.046875 L 15.171875 -15.03125 Z M 59.890625 -15.03125 "/></g></g></g><g fill="#ffffff" fill-opacity="1"><g transform="translate(110.611845, 96.275723)"><g><path d="M 60.046875 -45.09375 L 60.046875 -30.0625 L 15.03125 -30.0625 L 15.03125 0 L 0 0 L 0 -75.078125 L 60.046875 -75.078125 L 60.046875 -60.046875 L 75.078125 -60.046875 L 75.078125 -45.09375 Z M 59.890625 -45.09375 L 59.890625 -60.046875 L 15.03125 -60.046875 L 15.03125 -45.09375 Z M 59.890625 -45.09375 "/></g></g></g><g fill="#ffffff" fill-opacity="1"><g transform="translate(205.066146, 96.275723)"><g><path d="M 0 0 L 0 -75.078125 L 60.046875 -75.078125 L 60.046875 -60.046875 L 15.03125 -60.046875 L 15.03125 -45.09375 L 60.046875 -45.09375 L 60.046875 -30.0625 L 15.03125 -30.0625 L 15.03125 -15.03125 L 60.046875 -15.03125 L 60.046875 0 Z M 0 0 "/></g></g></g><g fill="#ffffff" fill-opacity="1"><g transform="translate(299.520447, 96.275723)"><g><path d="M 60.046875 0 L 60.046875 -15.03125 L 45.09375 -15.03125 L 45.09375 -30.0625 L 30.0625 -30.0625 L 30.0625 -45.09375 L 15.03125 -45.09375 L 15.03125 0 L 0 0 L 0 -75.078125 L 15.03125 -75.078125 L 15.03125 -60.046875 L 30.0625 -60.046875 L 30.0625 -45.09375 L 45.09375 -45.09375 L 45.09375 -30.0625 L 60.046875 -30.0625 L 60.046875 -75.078125 L 75.078125 -75.078125 L 75.078125 0 Z M 60.046875 0 "/></g></g></g><g fill="#ffffff" fill-opacity="1"><g transform="translate(409.003508, 96.275723)"><g><path d="M 60.046875 -15.03125 L 60.046875 -30.0625 L 15.03125 -30.0625 L 15.03125 -45.09375 L 0 -45.09375 L 0 -60.046875 L 15.03125 -60.046875 L 15.03125 -45.09375 L 60.046875 -45.09375 L 60.046875 -30.0625 L 75.078125 -30.0625 L 75.078125 -15.03125 L 60.046875 -15.03125 L 60.046875 0 L 0 0 L 0 -15.03125 Z M 15.03125 -60.046875 L 15.03125 -75.078125 L 75.078125 -75.078125 L 75.078125 -60.046875 Z M 15.03125 -60.046875 "/></g></g></g><g fill="#ffffff" fill-opacity="1"><g transform="translate(518.486568, 96.275723)"><g><path d="M 30.0625 -60.046875 L 30.0625 -75.078125 L 45.015625 -75.078125 L 45.015625 -60.046875 L 60.046875 -60.046875 L 60.046875 -30.0625 L 75.078125 -30.0625 L 75.078125 0 L 60.046875 0 L 60.046875 -15.03125 L 15.03125 -15.03125 L 15.03125 0 L 0 0 L 0 -30.0625 L 15.03125 -30.0625 L 15.03125 -60.046875 Z M 45.015625 -30.0625 L 45.015625 -59.890625 L 30.0625 -59.890625 L 30.0625 -30.0625 Z M 45.015625 -30.0625 "/></g></g></g><g fill="#ffffff" fill-opacity="1"><g transform="translate(627.969629, 96.275723)"><g><path d="M 15.03125 0 L 15.03125 -15.03125 L 0 -15.03125 L 0 -60.046875 L 15.03125 -60.046875 L 15.03125 -15.03125 L 60.046875 -15.03125 L 60.046875 -30.0625 L 45.015625 -30.0625 L 45.015625 -45.09375 L 75.078125 -45.09375 L 75.078125 0 Z M 15.03125 -60.046875 L 15.03125 -75.078125 L 60.046875 -75.078125 L 60.046875 -60.046875 Z M 15.03125 -60.046875 "/></g></g></g></g></g></g></g></g></g></g></g></g><g transform="matrix(1, 0, 0, 1, 221, 89)"><g clip-path="url(#83291d55ae)"><g clip-path="url(#930f90f2c2)"><g transform="matrix(1, 0, 0, 1, 0, -0.000000000000014211)"><g clip-path="url(#f78ee81a51)"><g clip-path="url(#86ab667908)"><g mask="url(#b5ded92765)"><g transform="matrix(1, 0, 0, 1, 0, -0.000000000000014211)"><g clip-path="url(#c33159e605)"><g clip-path="url(#e12fbe6971)"><path fill="url(#9265cea326)" d="M 17.777344 1.871094 L 17.777344 61 L 397.425781 61 L 397.425781 1.871094 Z M 17.777344 1.871094 " fill-rule="nonzero"/></g></g></g></g></g></g></g></g></g></g></svg>