<svg class="vdid-logo" width="40" height="40" viewBox="0 0 384 384" xmlns="http://www.w3.org/2000/svg">
  <!-- Main D -->
  <path fill="#ff751f" fill-rule="evenodd" d="M 68.683594 188.945312 L 68.683594 97.234375 L 111.6875 97.234375 L 111.6875 53.894531 L 218.578125 53.894531 C 236.003906 53.894531 253.132812 56.726562 269.339844 63.210938 C 284.5 69.265625 298.101562 77.945312 309.652344 89.492188 C 321.234375 101.078125 329.949219 114.785156 336.09375 129.949219 C 342.753906 146.402344 345.589844 163.882812 345.589844 181.59375 C 345.589844 199.574219 342.667969 217.230469 336.113281 234.023438 C 330.019531 249.679688 321.339844 263.9375 309.757812 276.160156 C 298.316406 288.203125 284.75 297.5 269.515625 304.195312 C 253.34375 311.28125 236.164062 314.433594 218.558594 314.433594 L 68.683594 314.433594 L 68.683594 218.222656 L 92.0625 218.222656 L 92.0625 188.964844 L 68.683594 188.964844 Z M 124.121094 109.667969 L 124.121094 144.117188 L 94.082031 144.117188 L 94.082031 173.375 L 124.136719 173.375 L 124.136719 258.640625 L 218.59375 258.640625 C 228.40625 258.640625 237.972656 256.921875 247.003906 253.007812 C 255.523438 249.308594 263.121094 244.171875 269.585938 237.492188 C 276.195312 230.675781 281.046875 222.652344 284.464844 213.8125 C 288.203125 204.140625 289.851562 193.976562 289.851562 183.632812 C 289.851562 173.359375 288.21875 163.246094 284.464844 153.644531 C 281.046875 144.914062 276.195312 137.015625 269.605469 130.320312 C 263.140625 123.75 255.558594 118.71875 247.058594 115.140625 C 237.988281 111.316406 228.40625 109.648438 218.59375 109.648438 L 124.121094 109.648438 Z"/>
  <!-- Inner square -->
  <rect x="122" y="144" width="29" height="29" fill="#ff751f"/>
  <!-- Dispersing blocks -->
  <rect class="block-1" x="52.9" y="38.4" width="43.3" height="43.3" fill="#ff751f"/>
  <rect class="block-2" x="7" y="116.2" width="36.8" height="36.8" fill="#ff751f"/>
  <rect class="block-3" x="27.1" y="188.9" width="29.3" height="29.3" fill="#ff751f"/>
  <rect class="block-4" x="19.1" y="82.4" width="15.2" height="15.2" fill="#ff751f"/>
  <rect class="block-5" x="6.3" y="43.9" width="15.2" height="15.2" fill="#ff751f"/>
</svg>
