<svg xmlns="http://www.w3.org/2000/svg" xmlns:xlink="http://www.w3.org/1999/xlink" width="1200" zoomAndPan="magnify" viewBox="0 0 900 149.999998" height="200" preserveAspectRatio="xMidYMid meet" version="1.0"><defs><g/><clipPath id="7540e34712"><path d="M 39 23 L 80 23 L 80 83 L 39 83 Z M 39 23 " clip-rule="nonzero"/></clipPath><clipPath id="c760565fba"><path d="M 32.578125 13.160156 L 71.59375 5.046875 L 88.628906 86.984375 L 49.613281 95.097656 Z M 32.578125 13.160156 " clip-rule="nonzero"/></clipPath><clipPath id="82cca0a326"><path d="M -46.363281 29.574219 L 71.988281 4.964844 L 89.023438 86.902344 L -29.328125 111.507812 Z M -46.363281 29.574219 " clip-rule="nonzero"/></clipPath><clipPath id="c7c33ec048"><path d="M 72 32 L 670.558594 32 L 670.558594 106.121094 L 72 106.121094 Z M 72 32 " clip-rule="nonzero"/></clipPath><clipPath id="b26dd972c8"><rect x="0" width="599" y="0" height="75"/></clipPath><clipPath id="2beab45040"><rect x="0" width="671" y="0" height="107"/></clipPath></defs><g transform="matrix(1, 0, 0, 1, 0, 17)"><g clip-path="url(#2beab45040)"><g clip-path="url(#7540e34712)"><g clip-path="url(#c760565fba)"><g clip-path="url(#82cca0a326)"><path fill="#5432ff" d="M 56.421875 82.1875 C 54.675781 82.550781 53.390625 82.210938 51.988281 81.289062 C 49.179688 79.449219 48.453125 75.960938 50.296875 73.152344 L 65.492188 49.980469 L 42.320312 34.785156 C 39.511719 32.945312 38.785156 29.457031 40.625 26.648438 C 42.46875 23.839844 45.957031 23.113281 48.765625 24.953125 L 76.851562 43.371094 C 79.660156 45.214844 80.386719 48.703125 78.542969 51.511719 L 60.125 79.597656 C 59.207031 81.003906 58.164062 81.824219 56.421875 82.1875 Z M 56.421875 82.1875 " fill-opacity="1" fill-rule="nonzero"/></g></g></g><g clip-path="url(#c7c33ec048)"><g transform="matrix(1, 0, 0, 1, 72, 32)"><g clip-path="url(#b26dd972c8)"><g fill="#000000" fill-opacity="1"><g transform="translate(1.151986, 59.421881)"><g><path d="M 82.21875 0 L 61.40625 0 L 56.8125 -8.015625 L 25.9375 -8.015625 L 21.328125 0 L 0.515625 0 L 31.828125 -48.921875 L 50.90625 -48.921875 Z M 49.875 -20.125 L 41.390625 -34.96875 L 32.859375 -20.125 Z M 49.875 -20.125 "/></g></g></g><g fill="#000000" fill-opacity="1"><g transform="translate(83.878121, 59.421881)"><g><path d="M 64.421875 0 L 5.453125 0 L 5.453125 -48.953125 L 61.71875 -48.953125 L 61.71875 -36.84375 L 26 -36.84375 L 26 -29.171875 L 56.1875 -29.171875 L 56.1875 -19.75 L 26 -19.75 L 26 -12.109375 L 64.421875 -12.109375 Z M 64.421875 0 "/></g></g></g><g fill="#000000" fill-opacity="1"><g transform="translate(151.014218, 59.421881)"><g><path d="M 37.015625 1.0625 C 24.921875 1.0625 16.015625 -1.429688 10.296875 -6.421875 C 5.253906 -10.828125 2.734375 -16.84375 2.734375 -24.46875 C 2.734375 -32.0625 5.253906 -38.066406 10.296875 -42.484375 C 16.015625 -47.460938 24.921875 -49.953125 37.015625 -49.953125 C 49.117188 -49.953125 58.023438 -47.460938 63.734375 -42.484375 C 68.785156 -38.066406 71.3125 -32.0625 71.3125 -24.46875 C 71.3125 -16.84375 68.785156 -10.828125 63.734375 -6.421875 C 58.023438 -1.429688 49.117188 1.0625 37.015625 1.0625 Z M 37.015625 -12.078125 C 41.972656 -12.078125 45.613281 -13.5 47.9375 -16.34375 C 49.800781 -18.632812 50.734375 -21.34375 50.734375 -24.46875 C 50.734375 -27.582031 49.800781 -30.273438 47.9375 -32.546875 C 45.613281 -35.410156 41.972656 -36.84375 37.015625 -36.84375 C 32.054688 -36.84375 28.40625 -35.410156 26.0625 -32.546875 C 24.195312 -30.273438 23.265625 -27.582031 23.265625 -24.46875 C 23.265625 -21.34375 24.195312 -18.632812 26.0625 -16.34375 C 28.40625 -13.5 32.054688 -12.078125 37.015625 -12.078125 Z M 37.015625 -12.078125 "/></g></g></g><g fill="#000000" fill-opacity="1"><g transform="translate(225.041316, 59.421881)"><g><path d="M 78.09375 0 L 53.671875 0 L 26 -33.125 L 26 0 L 5.453125 0 L 5.453125 -48.953125 L 29.890625 -48.953125 L 57.5625 -16 L 57.5625 -48.953125 L 78.09375 -48.953125 Z M 78.09375 0 "/></g></g></g><g fill="#000000" fill-opacity="1"><g transform="translate(308.586184, 59.421881)"><g><path d="M 32.34375 1.0625 C 25.726562 1.0625 20.394531 0.351562 16.34375 -1.0625 C 12.289062 -2.488281 9.207031 -4.445312 7.09375 -6.9375 C 4.976562 -9.425781 3.554688 -12.300781 2.828125 -15.5625 L 24.640625 -15.5625 C 26.253906 -13.238281 28.820312 -12.078125 32.34375 -12.078125 C 35.875 -12.078125 38.445312 -13.238281 40.0625 -15.5625 C 40.195312 -15.789062 40.265625 -15.992188 40.265625 -16.171875 C 40.265625 -16.785156 39.445312 -17.242188 37.8125 -17.546875 C 36.1875 -17.859375 33.757812 -18.09375 30.53125 -18.25 C 26.457031 -18.4375 22.179688 -18.867188 17.703125 -19.546875 C 7.722656 -21.097656 2.734375 -25.113281 2.734375 -31.59375 C 2.734375 -32.132812 2.765625 -32.710938 2.828125 -33.328125 C 3.554688 -36.585938 4.976562 -39.460938 7.09375 -41.953125 C 9.207031 -44.441406 12.289062 -46.394531 16.34375 -47.8125 C 20.394531 -49.238281 25.726562 -49.953125 32.34375 -49.953125 C 38.957031 -49.953125 44.289062 -49.238281 48.34375 -47.8125 C 52.394531 -46.394531 55.476562 -44.441406 57.59375 -41.953125 C 59.707031 -39.460938 61.128906 -36.585938 61.859375 -33.328125 L 40.0625 -33.328125 C 38.445312 -35.648438 35.875 -36.8125 32.34375 -36.8125 C 28.820312 -36.8125 26.253906 -35.648438 24.640625 -33.328125 C 24.523438 -33.148438 24.46875 -32.984375 24.46875 -32.828125 C 24.46875 -32.273438 25.242188 -31.867188 26.796875 -31.609375 C 28.359375 -31.347656 30.65625 -31.125 33.6875 -30.9375 C 36.726562 -30.757812 39.960938 -30.460938 43.390625 -30.046875 C 46.828125 -29.640625 50.039062 -28.929688 53.03125 -27.921875 C 56.03125 -26.910156 58.367188 -25.414062 60.046875 -23.4375 C 61.367188 -21.914062 62.03125 -19.984375 62.03125 -17.640625 C 62.03125 -16.984375 61.972656 -16.289062 61.859375 -15.5625 C 61.128906 -12.300781 59.707031 -9.425781 57.59375 -6.9375 C 55.476562 -4.445312 52.394531 -2.488281 48.34375 -1.0625 C 44.289062 0.351562 38.957031 1.0625 32.34375 1.0625 Z M 32.34375 1.0625 "/></g></g></g><g fill="#000000" fill-opacity="1"><g transform="translate(373.33431, 59.421881)"><g><path d="M 82.21875 0 L 61.40625 0 L 56.8125 -8.015625 L 25.9375 -8.015625 L 21.328125 0 L 0.515625 0 L 31.828125 -48.921875 L 50.90625 -48.921875 Z M 49.875 -20.125 L 41.390625 -34.96875 L 32.859375 -20.125 Z M 49.875 -20.125 "/></g></g></g><g fill="#000000" fill-opacity="1"><g transform="translate(456.060464, 59.421881)"><g><path d="M 37.015625 1.0625 C 24.921875 1.0625 16.015625 -1.429688 10.296875 -6.421875 C 5.253906 -10.828125 2.734375 -16.828125 2.734375 -24.421875 C 2.734375 -32.046875 5.253906 -38.066406 10.296875 -42.484375 C 16.015625 -47.460938 24.921875 -49.953125 37.015625 -49.953125 C 43.910156 -49.953125 49.644531 -49.175781 54.21875 -47.625 C 58.789062 -46.082031 62.378906 -43.972656 64.984375 -41.296875 C 67.585938 -38.628906 69.363281 -35.554688 70.3125 -32.078125 L 48.34375 -32.078125 C 46.050781 -35.234375 42.273438 -36.8125 37.015625 -36.8125 C 32.054688 -36.8125 28.40625 -35.390625 26.0625 -32.546875 C 24.195312 -30.253906 23.265625 -27.546875 23.265625 -24.421875 C 23.265625 -21.304688 24.195312 -18.613281 26.0625 -16.34375 C 28.40625 -13.5 32.054688 -12.078125 37.015625 -12.078125 C 41.023438 -12.078125 44.035156 -12.421875 46.046875 -13.109375 C 48.054688 -13.804688 49.53125 -14.710938 50.46875 -15.828125 L 42.4375 -15.828125 L 42.4375 -24.421875 L 70.3125 -24.421875 L 70.3125 0.03125 L 61.78125 0.03125 L 60.046875 -4.703125 C 54.609375 -0.859375 46.929688 1.0625 37.015625 1.0625 Z M 37.015625 1.0625 "/></g></g></g><g fill="#000000" fill-opacity="1"><g transform="translate(530.462796, 59.421881)"><g><path d="M 64.421875 0 L 5.453125 0 L 5.453125 -48.953125 L 61.71875 -48.953125 L 61.71875 -36.84375 L 26 -36.84375 L 26 -29.171875 L 56.1875 -29.171875 L 56.1875 -19.75 L 26 -19.75 L 26 -12.109375 L 64.421875 -12.109375 Z M 64.421875 0 "/></g></g></g></g></g></g></g></g></svg>